# xmcd
#
# Track frame offsets:
#	150
#	17570
#	31997
#	47989
#	67162
#	85265
#	98457
#	119004
#	135825
#	147695
#	165360
#
# Disc length: 2444 seconds
#
# Revision: 26
# Processed by: cddbd v1.5.2PL0 Copyright (c) Steve Scherf et al.
# Submitted via: audiograbber 1.83.01
#
DISCID=91098a0b
DTITLE=Garth Brooks - In Pieces
DYEAR=1998
DGENRE=Country
TTITLE0=Standing Outside The Fire
TTITLE1=The Night I Called The Old Man Out
TTITLE2=American Honky-Tonk Bar Association
TTITLE3=One Night A Day
TTITLE4=Kickin' And Screamin'
TTITLE5=Anonymous
TTITLE6=Ain't Going Down (Til The Sun Comes Up)
TTITLE7=The Red Strokes
TTITLE8=Callin' Baton Rouge
TTITLE9=The Night Will Only Know
TTITLE10=The Cowboy Song
EXTD=YEAR: 1998
EXTT0=
EXTT1=
EXTT2=
EXTT3=
EXTT4=
EXTT5=
EXTT6=
EXTT7=
EXTT8=
EXTT9=
EXTT10=
PLAYORDER=
